# xmcd
#
# Track frame offsets:
#	150
#	21591
#	45676
#	67647
#	82372
#	109739
#	132224
#	150586
#	165810
#	192008
#	205946
#	228856
#
# Disc length: 3451 seconds
#
# Revision: 1
# Processed by: cddbd v1.5.1PL0 Copyright (c) Steve Scherf et al.
# Submitted via: MusicWizard 7.0.2
#
DISCID=920d790c
DTITLE=Bob Dylan - Love And Theft
DYEAR=2001
DGENRE=Singer/Songwriter
TTITLE0=Tweedle Dee and Tweedle Dum
TTITLE1=Mississippi
TTITLE2=Summer Days
TTITLE3=Bye And Bye
TTITLE4=Lonesome Day Blues
TTITLE5=Floater  (Too Much To Ask)
TTITLE6=High Water  (For Charley Patton)
TTITLE7=Moonlight
TTITLE8=Honest With Me
TTITLE9=Po' Boy
TTITLE10=Cry A While
TTITLE11=Sugar Baby
EXTD=Produced by Jack Frost\n(c)(p)2001 Sony Music Entertainment Inc. - Columbia\nupc 509975043642
EXTD=4\nCOL 504364 2
EXTT0=
EXTT1=
EXTT2=
EXTT3=
EXTT4=
EXTT5=
EXTT6=
EXTT7=
EXTT8=
EXTT9=
EXTT10=
EXTT11=
PLAYORDER=
